<?xml version="1.0" encoding="UTF-8" standalone="no"?>
<!DOCTYPE svg PUBLIC "-//W3C//DTD SVG 1.1//EN" "http://www.w3.org/Graphics/SVG/1.1/DTD/svg11.dtd">
<svg width="100%" height="100%" viewBox="0 0 513 513" version="1.1" xmlns="http://www.w3.org/2000/svg" xmlns:xlink="http://www.w3.org/1999/xlink" xml:space="preserve" xmlns:serif="http://www.serif.com/" style="fill-rule:evenodd;clip-rule:evenodd;stroke-linejoin:round;stroke-miterlimit:1.41421;">
    <g>
        <path d="M344.177,376.243L167.823,376.243C150.114,376.243 135.758,361.887 135.758,344.178L135.758,167.824C135.758,150.115 150.114,135.759 167.823,135.759L344.178,135.759C361.887,135.759 376.243,150.115 376.243,167.824L376.243,344.179C376.242,361.887 361.886,376.243 344.177,376.243Z" style="fill:rgb(248,84,67);fill-rule:nonzero;"/>
        <circle cx="39.565" cy="191.871" r="16.03" style="fill:rgb(248,84,67);"/>
        <circle cx="472.44" cy="320.131" r="16.03" style="fill:rgb(248,84,67);"/>
        <circle cx="23.532" cy="392.271" r="16.03" style="fill:rgb(248,84,67);"/>
        <circle cx="488.47" cy="119.731" r="16.03" style="fill:rgb(248,84,67);"/>
        <circle cx="320.13" cy="39.566" r="16.03" style="fill:rgb(248,84,67);"/>
        <circle cx="191.87" cy="472.441" r="16.03" style="fill:rgb(248,84,67);"/>
        <circle cx="119.73" cy="23.533" r="16.03" style="fill:rgb(248,84,67);"/>
        <circle cx="392.27" cy="488.471" r="16.03" style="fill:rgb(248,84,67);"/>
    </g>
    <path d="M344.177,352.195L167.823,352.195C163.396,352.195 159.807,348.606 159.807,344.179L159.807,167.824C159.807,163.397 163.396,159.808 167.823,159.808L344.178,159.808C348.605,159.808 352.194,163.397 352.194,167.824L352.194,344.179C352.194,348.606 348.605,352.195 344.177,352.195Z" style="fill-opacity:0;fill-rule:nonzero;"/>
    <path d="M256,324.248C258.286,324.248 260.462,325.223 261.981,326.925C267.218,332.796 274.898,336.162 283.055,336.162C297.083,336.162 308.865,326.341 309.875,313.808C310.086,311.197 311.566,308.853 313.828,307.53C322.658,302.375 328.146,293.38 328.146,284.057C328.146,277.329 325.343,270.792 320.247,265.649C317.155,262.526 317.155,257.492 320.247,254.368C325.343,249.225 328.146,242.688 328.146,235.96C328.146,223.854 319.308,213.184 306.156,209.407C302.062,208.233 299.604,204.052 300.559,199.9C300.919,198.334 301.091,197.058 301.091,195.88C301.091,184.83 290.977,175.84 278.546,175.84C272.119,175.84 265.966,178.31 261.684,182.615C258.662,185.637 253.339,185.637 250.317,182.615C246.035,178.309 239.882,175.84 233.455,175.84C221.024,175.84 210.91,184.831 210.91,195.88C210.91,197.203 211.059,198.534 211.341,199.829C212.249,203.962 209.799,208.088 205.728,209.258C192.647,213.027 183.856,223.756 183.856,235.96C183.856,241.796 185.954,247.424 189.923,252.243C192.279,255.112 192.365,259.222 190.119,262.181C186.025,267.59 183.856,273.771 183.856,280.049C183.856,290.053 189.273,299.639 198.354,305.694C200.562,307.166 201.9,309.639 201.924,312.297C202.034,325.456 214.16,336.161 228.947,336.161C237.104,336.161 244.784,332.795 250.021,326.924C251.538,325.222 253.714,324.248 256,324.248Z" style="fill:white;fill-rule:nonzero;"/>
    <path d="M504.5,248.501L383.742,248.501L383.742,231.437L416.323,231.437C420.465,231.437 423.823,228.079 423.823,223.937C423.823,219.795 420.465,216.437 416.323,216.437L383.742,216.437L383.742,199.372L406.362,199.372C414.789,199.372 422.712,196.091 428.67,190.132L477.996,140.806C481.21,142.407 484.773,143.259 488.469,143.259C494.755,143.259 500.664,140.811 505.109,136.367C509.554,131.922 512.002,126.013 512.002,119.727C512.002,113.441 509.554,107.532 505.109,103.087C500.665,98.642 494.755,96.194 488.469,96.194C482.183,96.194 476.274,98.642 471.829,103.086C467.384,107.531 464.936,113.44 464.936,119.726C464.936,123.422 465.788,126.985 467.389,130.199L418.063,179.525C414.938,182.65 410.782,184.372 406.361,184.372L383.741,184.372L383.741,167.824C383.741,146.008 365.992,128.26 344.177,128.26L327.629,128.26L327.629,61.865C336.937,58.726 343.661,49.919 343.661,39.565C343.661,26.589 333.104,16.033 320.129,16.033C307.154,16.033 296.597,26.59 296.597,39.565C296.597,49.919 303.321,58.725 312.629,61.865L312.629,128.259L295.565,128.259L295.565,95.678C295.565,91.536 292.207,88.178 288.065,88.178C283.923,88.178 280.565,91.536 280.565,95.678L280.565,128.259L263.5,128.259L263.5,7.501C263.5,3.359 260.142,0.001 256,0.001C251.858,0.001 248.5,3.359 248.5,7.501L248.5,128.259L231.436,128.259L231.436,95.678C231.436,91.536 228.078,88.178 223.936,88.178C219.794,88.178 216.436,91.536 216.436,95.678L216.436,128.259L199.372,128.259L199.372,105.64C199.372,97.213 196.09,89.29 190.131,83.332L140.788,33.989C145.147,25.188 143.686,14.214 136.367,6.894C127.191,-2.281 112.262,-2.28 103.087,6.894C93.912,16.069 93.912,30.998 103.087,40.174C107.675,44.761 113.701,47.055 119.727,47.055C123.315,47.055 126.897,46.222 130.182,44.595L179.525,93.939C182.651,97.064 184.372,101.22 184.372,105.64L184.372,128.259L167.824,128.259C164.479,128.259 161.152,128.679 157.936,129.506C153.925,130.538 151.51,134.627 152.542,138.639C153.574,142.651 157.664,145.066 161.675,144.033C163.67,143.52 165.738,143.259 167.823,143.259L344.177,143.259C357.722,143.259 368.741,154.279 368.741,167.823L368.741,344.178C368.741,346.261 368.481,348.328 367.969,350.321C366.938,354.333 369.354,358.421 373.365,359.452C373.991,359.613 374.619,359.69 375.238,359.69C378.579,359.69 381.626,357.441 382.496,354.055C383.322,350.843 383.741,347.519 383.741,344.177L383.741,327.629L450.135,327.629C453.274,336.937 462.081,343.661 472.435,343.661C485.411,343.661 495.967,333.105 495.967,320.129C495.967,307.153 485.41,296.597 472.435,296.597C462.081,296.597 453.275,303.321 450.135,312.629L383.741,312.629L383.741,295.564L416.322,295.564C420.464,295.564 423.822,292.206 423.822,288.064C423.822,283.922 420.464,280.564 416.322,280.564L383.741,280.564L383.741,263.501L504.5,263.501C508.642,263.501 512,260.143 512,256.001C512,251.859 508.642,248.501 504.5,248.501ZM482.435,113.694C484.047,112.082 486.189,111.195 488.468,111.195C490.747,111.195 492.889,112.082 494.501,113.694C496.113,115.306 497,117.448 497,119.727C497,122.006 496.113,124.148 494.501,125.76C492.889,127.372 490.747,128.259 488.468,128.259C486.189,128.259 484.047,127.372 482.435,125.76C480.823,124.148 479.936,122.006 479.936,119.727C479.936,117.448 480.823,115.305 482.435,113.694ZM320.129,31.033C324.834,31.033 328.661,34.861 328.661,39.565C328.661,44.269 324.833,48.097 320.129,48.097C315.425,48.097 311.597,44.269 311.597,39.565C311.597,34.861 315.424,31.033 320.129,31.033ZM113.692,29.567C110.365,26.24 110.365,20.827 113.692,17.501C115.356,15.837 117.54,15.006 119.726,15.006C121.911,15.006 124.096,15.838 125.759,17.501C129.086,20.828 129.086,26.241 125.759,29.568C122.433,32.893 117.02,32.894 113.692,29.567ZM472.436,311.598C477.141,311.598 480.968,315.426 480.968,320.13C480.968,324.835 477.14,328.662 472.436,328.662C467.732,328.662 463.904,324.834 463.904,320.13C463.903,315.425 467.731,311.598 472.436,311.598Z" style="fill:rgb(50,50,50);fill-rule:nonzero;"/>
    <path d="M381.819,467.407L332.476,418.063C329.35,414.938 327.629,410.782 327.629,406.362L327.629,383.743L344.177,383.743C347.522,383.743 350.848,383.323 354.063,382.496C358.074,381.464 360.489,377.375 359.457,373.363C358.425,369.352 354.338,366.937 350.324,367.969C348.33,368.482 346.262,368.742 344.177,368.742L167.823,368.742C154.278,368.742 143.259,357.722 143.259,344.178L143.259,167.824C143.259,165.739 143.519,163.671 144.032,161.678C145.065,157.667 142.65,153.578 138.639,152.545C134.627,151.512 130.538,153.927 129.506,157.938C128.678,161.152 128.259,164.478 128.259,167.824L128.259,184.372L61.864,184.372C58.725,175.064 49.918,168.34 39.564,168.34C26.588,168.34 16.032,178.896 16.032,191.872C16.032,204.848 26.589,215.404 39.564,215.404C49.918,215.404 58.724,208.68 61.864,199.372L128.258,199.372L128.258,216.437L95.677,216.437C91.535,216.437 88.177,219.795 88.177,223.937C88.177,228.079 91.535,231.437 95.677,231.437L128.258,231.437L128.258,248.501L7.5,248.501C3.358,248.501 0,251.859 0,256.001C0,260.143 3.358,263.501 7.5,263.501L128.258,263.501L128.258,280.565L95.677,280.565C91.535,280.565 88.177,283.923 88.177,288.065C88.177,292.207 91.535,295.565 95.677,295.565L128.258,295.565L128.258,312.63L105.638,312.63C97.211,312.63 89.288,315.911 83.33,321.87L34.004,371.196C30.79,369.595 27.227,368.743 23.531,368.743C17.245,368.743 11.336,371.191 6.891,375.635C2.448,380.08 0,385.99 0,392.275C0,398.56 2.448,404.47 6.893,408.915C11.337,413.36 17.247,415.807 23.533,415.807C29.819,415.807 35.728,413.359 40.173,408.915C44.618,404.47 47.066,398.561 47.066,392.275C47.066,388.579 46.214,385.016 44.613,381.802L93.939,332.476C97.064,329.351 101.22,327.629 105.641,327.629L128.261,327.629L128.261,344.177C128.261,365.993 146.01,383.741 167.825,383.741L184.373,383.741L184.373,450.135C175.065,453.274 168.341,462.081 168.341,472.435C168.341,485.411 178.898,495.967 191.873,495.967C204.848,495.967 215.405,485.41 215.405,472.435C215.405,462.081 208.681,453.275 199.373,450.135L199.373,383.741L216.437,383.741L216.437,416.322C216.437,420.464 219.795,423.822 223.937,423.822C228.079,423.822 231.437,420.464 231.437,416.322L231.437,383.741L248.5,383.741L248.5,504.501C248.5,508.643 251.858,512.001 256,512.001C260.142,512.001 263.5,508.643 263.5,504.501L263.5,383.743L280.564,383.743L280.564,416.324C280.564,420.466 283.922,423.824 288.064,423.824C292.206,423.824 295.564,420.466 295.564,416.324L295.564,383.743L312.628,383.743L312.628,406.362C312.628,414.789 315.91,422.712 321.869,428.67L371.212,478.013C366.853,486.814 368.314,497.788 375.634,505.108C380.221,509.696 386.248,511.989 392.274,511.989C398.3,511.989 404.327,509.696 408.914,505.108C418.089,495.933 418.089,481.004 408.914,471.829C401.595,464.509 390.62,463.048 381.819,467.407ZM39.564,200.404C34.859,200.404 31.032,196.576 31.032,191.872C31.032,187.167 34.86,183.34 39.564,183.34C44.268,183.34 48.096,187.168 48.096,191.872C48.097,196.577 44.269,200.404 39.564,200.404ZM29.565,398.308C27.953,399.92 25.811,400.807 23.532,400.807C21.253,400.807 19.111,399.92 17.499,398.308C15.887,396.696 15,394.554 15,392.275C15,389.996 15.887,387.854 17.499,386.242C19.111,384.63 21.253,383.743 23.532,383.743C25.811,383.743 27.953,384.63 29.565,386.242C31.177,387.854 32.064,389.996 32.064,392.275C32.064,394.554 31.177,396.697 29.565,398.308ZM191.871,480.969C187.166,480.969 183.339,477.141 183.339,472.437C183.339,467.733 187.167,463.905 191.871,463.905C196.575,463.905 200.403,467.733 200.403,472.437C200.403,477.141 196.576,480.969 191.871,480.969ZM398.308,494.502C394.981,497.829 389.568,497.828 386.241,494.502C382.914,491.175 382.914,485.762 386.241,482.436C387.905,480.773 390.09,479.941 392.275,479.941C394.46,479.941 396.645,480.773 398.308,482.436C401.634,485.762 401.634,491.175 398.308,494.502Z" style="fill:rgb(50,50,50);fill-rule:nonzero;"/>
    <path d="M194.392,312.096C194.392,312.102 194.392,312.108 194.392,312.114C194.392,329.51 209.893,343.663 228.947,343.663C239.897,343.663 249.666,338.984 256.001,331.706C262.336,338.984 272.105,343.663 283.055,343.663C301.392,343.663 316.431,330.553 317.537,314.061C328.674,307.599 335.645,296.28 335.645,284.058C335.645,275.068 331.812,266.492 325.215,260.01C331.811,253.528 335.645,244.951 335.645,235.962C335.645,219.922 323.913,206.335 307.852,201.92C308.327,199.959 308.591,197.942 308.591,195.881C308.591,180.695 295.112,168.34 278.546,168.34C269.572,168.34 261.511,171.969 256.001,177.705C250.491,171.969 242.429,168.34 233.456,168.34C216.889,168.34 203.411,180.695 203.411,195.881C203.411,197.942 203.675,199.959 204.15,201.92C188.089,206.334 176.357,219.921 176.357,235.962C176.357,243.801 179.131,251.197 184.256,257.305C179.245,263.792 176.357,271.667 176.357,280.051C176.355,292.803 183.169,304.71 194.392,312.096ZM215.232,215.408C215.299,215.41 215.366,215.419 215.432,215.419C217.144,215.419 218.865,214.836 220.274,213.643C223.149,211.209 223.726,207.079 221.796,203.972C221.739,203.88 221.687,203.786 221.627,203.697C221.596,203.652 221.559,203.609 221.527,203.564C221.411,203.401 221.292,203.241 221.163,203.087C221.159,203.082 221.156,203.077 221.152,203.073C219.901,201.594 218.408,199.146 218.408,195.88C218.408,188.965 225.158,183.339 233.453,183.339C241.748,183.339 248.498,188.965 248.498,195.88C248.498,200.022 251.856,203.38 255.998,203.38C260.14,203.38 263.498,200.022 263.498,195.88C263.498,188.965 270.248,183.339 278.543,183.339C286.838,183.339 293.588,188.965 293.588,195.88C293.588,197.728 293.104,199.304 292.463,200.6C288.197,201.003 284.071,202.034 280.154,203.686C276.337,205.295 274.548,209.694 276.157,213.511C277.766,217.327 282.165,219.118 285.982,217.508C289.224,216.141 292.712,215.438 296.35,215.41C296.422,215.412 296.493,215.419 296.565,215.419C296.632,215.419 296.698,215.41 296.765,215.408C309.948,215.494 320.642,224.679 320.642,235.96C320.642,243.051 316.328,249.561 309.101,253.376C306.641,254.674 305.101,257.227 305.101,260.009C305.101,262.791 306.641,265.344 309.101,266.642C316.328,270.456 320.642,276.967 320.642,284.058C320.642,289.345 318.185,294.388 314.035,298.159C310.092,290.858 303.123,285.046 294.318,282.28C290.368,281.039 286.157,283.236 284.915,287.187C283.673,291.139 285.871,295.349 289.822,296.59C297.468,298.993 302.606,305.232 302.606,312.115C302.606,321.24 293.834,328.664 283.051,328.664C272.269,328.664 263.497,321.24 263.497,312.115L263.497,264.018C263.497,254.893 272.269,247.47 283.051,247.47C287.193,247.47 290.551,244.112 290.551,239.97C290.551,235.828 287.193,232.47 283.051,232.47C275.797,232.47 269.061,234.526 263.497,238.027L263.497,228.447C263.497,224.305 260.139,220.947 255.997,220.947C251.855,220.947 248.497,224.305 248.497,228.447L248.497,270.084C245.973,268.5 243.205,267.189 240.211,266.248C236.257,265.006 232.049,267.204 230.808,271.154C229.566,275.106 231.763,279.316 235.714,280.558C243.36,282.961 248.497,289.2 248.497,296.082L248.497,312.114C248.497,321.239 239.725,328.663 228.943,328.663C218.16,328.663 209.388,321.239 209.388,312.114C209.388,308.203 211.046,304.401 214.056,301.409C216.994,298.489 217.008,293.74 214.088,290.802C211.168,287.864 206.42,287.85 203.482,290.77C201.685,292.557 200.138,294.509 198.852,296.584C194.116,292.104 191.351,286.21 191.351,280.049C191.351,268.937 200.072,259.175 212.559,256.31C216.596,255.384 219.118,251.36 218.192,247.323C217.266,243.285 213.241,240.764 209.205,241.69C204.178,242.843 199.55,244.768 195.446,247.295C192.785,243.953 191.352,240.039 191.352,235.96C191.355,224.679 202.049,215.495 215.232,215.408Z" style="fill:rgb(50,50,50);fill-rule:nonzero;"/>
</svg>
